<svg id="e4GiQN6e8BP1" xmlns="http://www.w3.org/2000/svg" xmlns:xlink="http://www.w3.org/1999/xlink" viewBox="0 0 214.900000 60" shape-rendering="geometricPrecision" text-rendering="geometricPrecision"><style><![CDATA[#e4GiQN6e8BP3 {animation: e4GiQN6e8BP3_c_o 1600ms linear infinite normal forwards}@keyframes e4GiQN6e8BP3_c_o { 0% {opacity: 0} 12.500000% {opacity: 0} 18.750000% {opacity: 1} 81.250000% {opacity: 1} 87.500000% {opacity: 0} 100% {opacity: 0}} #e4GiQN6e8BP4 {animation: e4GiQN6e8BP4_c_o 1600ms linear infinite normal forwards}@keyframes e4GiQN6e8BP4_c_o { 0% {opacity: 0} 6.250000% {opacity: 1} 93.750000% {opacity: 1} 100% {opacity: 0}} #e4GiQN6e8BP5 {animation: e4GiQN6e8BP5_c_o 1600ms linear infinite normal forwards}@keyframes e4GiQN6e8BP5_c_o { 0% {opacity: 0} 25% {opacity: 0} 31.250000% {opacity: 1} 68.750000% {opacity: 1} 75% {opacity: 0} 100% {opacity: 0}} #e4GiQN6e8BP6 {animation: e4GiQN6e8BP6_c_o 1600ms linear infinite normal forwards}@keyframes e4GiQN6e8BP6_c_o { 0% {opacity: 0} 31.250000% {opacity: 0} 37.500000% {opacity: 1} 62.500000% {opacity: 1} 68.750000% {opacity: 0} 100% {opacity: 0}} #e4GiQN6e8BP7 {animation: e4GiQN6e8BP7_c_o 1600ms linear infinite normal forwards}@keyframes e4GiQN6e8BP7_c_o { 0% {opacity: 0} 37.500000% {opacity: 0} 43.750000% {opacity: 1} 56.250000% {opacity: 1} 62.500000% {opacity: 0} 100% {opacity: 0}} #e4GiQN6e8BP8 {animation: e4GiQN6e8BP8_c_o 1600ms linear infinite normal forwards}@keyframes e4GiQN6e8BP8_c_o { 0% {opacity: 0} 18.750000% {opacity: 0} 25% {opacity: 1} 75% {opacity: 1} 81.250000% {opacity: 0} 100% {opacity: 0}} #e4GiQN6e8BP9 {animation: e4GiQN6e8BP9_c_o 1600ms linear infinite normal forwards}@keyframes e4GiQN6e8BP9_c_o { 0% {opacity: 0} 43.750000% {opacity: 0} 50% {opacity: 1} 56.250000% {opacity: 0} 100% {opacity: 0}} #e4GiQN6e8BP10 {animation: e4GiQN6e8BP10_c_o 1600ms linear infinite normal forwards}@keyframes e4GiQN6e8BP10_c_o { 0% {opacity: 0} 6.250000% {opacity: 0} 12.500000% {opacity: 1} 87.500000% {opacity: 1} 93.750000% {opacity: 0} 100% {opacity: 0}}]]></style><g id="e4GiQN6e8BP2"><path id="e4GiQN6e8BP3" d="M63.800000,14.200000C59.500000,14.200000,55.900000,15.200000,53.300000,18.800000C50.500000,22.700000,50.200000,29.500000,50.200000,37C50.200000,44.500000,50.500000,51.300000,53.300000,55.200000C55.900000,58.800000,59.500000,59.900000,63.800000,59.900000C68.100000,59.900000,71.700000,58.800000,74.300000,55.200000C77.100000,51.300000,77.400000,44.500000,77.400000,37C77.400000,29.500000,77.100000,22.700000,74.300000,18.800000C71.800000,15.300000,68.100000,14.200000,63.800000,14.200000ZM67.300000,50.200000C66.500000,51.400000,65.200000,52,63.800000,52C62.400000,52,61.100000,51.400000,60.300000,50.200000C59.100000,48.200000,59,43.600000,59,37.100000C59,30.500000,59.100000,26.100000,60.300000,24C61.100000,22.800000,62.400000,22.100000,63.800000,22.100000C65.200000,22.100000,66.500000,22.800000,67.300000,24C68.500000,26,68.600000,30.500000,68.600000,37.100000C68.500000,43.600000,68.500000,48.200000,67.300000,50.200000Z" opacity="0" fill="rgb(0,0,0)" stroke="none" stroke-width="1"/><path id="e4GiQN6e8BP4" d="M26,33.200000C24.700000,30.900000,23.100000,29.400000,21.300000,28.700000C22.400000,28.100000,23.400000,27.400000,24.200000,26.400000C26.200000,24,27.100000,20.700000,27.100000,16.700000C27.100000,14.200000,26.800000,12.100000,26.300000,10.300000C25.300000,7,23.700000,4.500000,21.400000,2.900000C18.800000,0.900000,15.800000,0,12.500000,0L0,0L0,19.400000L9,19.400000L9,9.200000L12.500000,9.200000C14.200000,9.200000,15.500000,9.800000,16.600000,11C17.700000,12.300000,18.300000,14.200000,18.300000,16.700000C18.300000,18.200000,18.100000,19.500000,17.800000,20.500000C16.900000,23.200000,15.200000,24.600000,12.600000,24.600000L9.800000,24.600000L9,24.600000L0,24.600000L0,60L15.500000,60C17.600000,60,19.700000,59.300000,21.800000,57.900000C23.700000,56.700000,25.100000,55,26.200000,52.900000C27.500000,50.200000,28.200000,47,28.200000,43.200000C28.200000,41.700000,28.100000,40.300000,27.900000,39C27.500000,36.700000,26.800000,34.700000,26,33.200000ZM18.400000,46.400000C17.300000,49.500000,15.300000,51,12.500000,51L9,51L9,33.600000L12.500000,33.600000C14.600000,33.600000,16.100000,34.300000,17.200000,35.600000C18.400000,37.100000,19,39.400000,19,42.700000C19,44.100000,18.800000,45.300000,18.400000,46.400000Z" opacity="0" fill="rgb(0,0,0)" stroke="none" stroke-width="1"/><path id="e4GiQN6e8BP5" d="M129.400000,22.200000L129.400000,14.300000C124.300000,14.300000,122.300000,14.900000,120.300000,16.700000L120.300000,14.300000L111.700000,14.300000L111.700000,60L120.600000,60L120.600000,29.800000C120.600000,25,123.800000,22.100000,128,22.100000L129.400000,22.200000L129.400000,22.200000Z" opacity="0" fill="rgb(0,0,0)" stroke="none" stroke-width="1"/><path id="e4GiQN6e8BP6" d="M139.900000,14.200000C136.300000,14.200000,134.500000,14.200000,134.500000,14.200000L134.500000,22.100000C134.500000,22.100000,138.700000,22,140,22C142.800000,22,144.300000,23.900000,144.300000,27.100000L144.300000,34L140.300000,34C135.200000,34,132.300000,35.100000,130.100000,37C127.400000,39.400000,126,42.900000,126,46.900000C126,51.400000,126.900000,54.700000,128.700000,56.800000C131,59.400000,133.300000,59.800000,137,59.800000C139.300000,59.800000,142.100000,59.800000,142.100000,59.800000L144.800000,59.800000L153.200000,59.800000L153.200000,28C153.200000,23.200000,151.700000,19.900000,149.300000,17.600000C147.100000,15.200000,143.600000,14.200000,139.900000,14.200000ZM144.300000,46.900000C144.300000,48.700000,144.300000,52.800000,144.300000,52.800000C144.300000,52.800000,140.900000,52.800000,139.600000,52.800000C136.600000,52.800000,135,50.600000,135,46.700000C135,44.900000,135.700000,42.700000,136.800000,41.700000C138.100000,40.500000,139.500000,40.300000,141.400000,40.300000L144.300000,40.300000L144.300000,46.900000Z" opacity="0" fill="rgb(0,0,0)" stroke="none" stroke-width="1"/><path id="e4GiQN6e8BP7" d="M173.700000,14.200000L166.300000,14.200000L157.700000,14.200000L157.700000,60L166.600000,60L166.600000,26.700000C166.600000,24.800000,166.600000,22.100000,166.600000,22.100000C166.600000,22.100000,169.900000,22.100000,171,22.100000C173.400000,22.100000,175.400000,23.800000,175.400000,27.200000L175.400000,60L184.300000,60L184.300000,26.600000C184.300000,21.500000,183.500000,19.700000,181.800000,17.700000C179.800000,15.300000,177.400000,14.200000,173.700000,14.200000Z" opacity="0" fill="rgb(0,0,0)" stroke="none" stroke-width="1"/><path id="e4GiQN6e8BP8" d="M94.400000,14.200000C92.900000,14.200000,91.300000,14.200000,89.700000,14.200000L89.700000,0L81.100000,0L81.100000,60L83.900000,60L89.700000,60L94.400000,60C98.700000,60,102.300000,58.900000,104.900000,55.300000C107.700000,51.400000,108,44.600000,108,37.100000C108,29.600000,107.700000,22.800000,104.900000,18.900000C102.300000,15.300000,98.700000,14.200000,94.400000,14.200000ZM97.800000,50.200000C97,51.400000,95.700000,52,94.300000,52C93.500000,52,91.300000,52,89.600000,52L89.600000,22.200000C90.900000,22.200000,92.500000,22.200000,94.300000,22.200000C95.700000,22.200000,97,22.900000,97.800000,24.100000C99,26.100000,99.100000,30.600000,99.100000,37.200000C99.100000,43.800000,99,48.200000,97.800000,50.200000Z" opacity="0" fill="rgb(0,0,0)" stroke="none" stroke-width="1"/><path id="e4GiQN6e8BP9" d="M206.300000,0L206.300000,14.200000C204.700000,14.200000,203,14.200000,201.600000,14.200000C197.300000,14.200000,193.700000,15.200000,191.100000,18.800000C188.300000,22.700000,188,29.500000,188,37C188,44.500000,188.300000,51.300000,191.100000,55.200000C193.700000,58.800000,197.300000,59.900000,201.600000,59.900000L206.300000,59.900000L212.100000,59.900000L214.900000,59.900000L214.900000,0L206.300000,0ZM201.600000,52C200.200000,52,198.900000,51.400000,198.100000,50.200000C196.900000,48.200000,196.800000,43.600000,196.800000,37.100000C196.800000,30.500000,196.900000,26.100000,198.100000,24C198.900000,22.800000,200.200000,22.100000,201.600000,22.100000C203.400000,22.100000,205.100000,22.100000,206.300000,22.100000L206.300000,52C204.600000,52,202.400000,52,201.600000,52Z" opacity="0" fill="rgb(0,0,0)" stroke="none" stroke-width="1"/><path id="e4GiQN6e8BP10" d="M50.200000,22.200000L50.200000,14.300000C45.100000,14.300000,43.100000,14.900000,41.100000,16.700000L41.100000,14.300000L32.500000,14.300000L32.500000,60L41.400000,60L41.400000,29.800000C41.400000,25,44.600000,22.100000,48.800000,22.100000L50.200000,22.200000L50.200000,22.200000Z" opacity="0" fill="rgb(0,0,0)" stroke="none" stroke-width="1"/></g></svg>