<?xml version="1.0" encoding="utf-8"?>
<!-- Generator: Adobe Illustrator 25.0.0, SVG Export Plug-In . SVG Version: 6.00 Build 0)  -->
<svg version="1.1" id="Layer_1" xmlns="http://www.w3.org/2000/svg" xmlns:xlink="http://www.w3.org/1999/xlink" x="0px" y="0px"
	 viewBox="0 0 214.9 60" style="enable-background:new 0 0 214.9 60;" xml:space="preserve">
<g>
	<path d="M63.8,14.2c-4.3,0-7.9,1-10.5,4.6c-2.8,3.9-3.1,10.7-3.1,18.2s0.3,14.3,3.1,18.2c2.6,3.6,6.2,4.7,10.5,4.7
		c4.3,0,7.9-1.1,10.5-4.7c2.8-3.9,3.1-10.7,3.1-18.2s-0.3-14.3-3.1-18.2C71.8,15.3,68.1,14.2,63.8,14.2z M67.3,50.2
		c-0.8,1.2-2.1,1.8-3.5,1.8c-1.4,0-2.7-0.6-3.5-1.8c-1.2-2-1.3-6.6-1.3-13.1c0-6.6,0.1-11,1.3-13.1c0.8-1.2,2.1-1.9,3.5-1.9
		c1.4,0,2.7,0.7,3.5,1.9c1.2,2,1.3,6.5,1.3,13.1C68.5,43.6,68.5,48.2,67.3,50.2z"/>
	<path d="M129.4,22.2v-7.9c-5.1,0-7.1,0.6-9.1,2.4v-2.4h-8.6V60h8.9V29.8c0-4.8,3.2-7.7,7.4-7.7L129.4,22.2L129.4,22.2z"/>
	<path d="M139.9,14.2c-3.6,0-5.4,0-5.4,0v7.9c0,0,4.2-0.1,5.5-0.1c2.8,0,4.3,1.9,4.3,5.1V34h-4c-5.1,0-8,1.1-10.2,3
		c-2.7,2.4-4.1,5.9-4.1,9.9c0,4.5,0.9,7.8,2.7,9.9c2.3,2.6,4.6,3,8.3,3c2.3,0,5.1,0,5.1,0h2.7h8.4V28c0-4.8-1.5-8.1-3.9-10.4
		C147.1,15.2,143.6,14.2,139.9,14.2z M144.3,46.9c0,1.8,0,5.9,0,5.9s-3.4,0-4.7,0c-3,0-4.6-2.2-4.6-6.1c0-1.8,0.7-4,1.8-5
		c1.3-1.2,2.7-1.4,4.6-1.4h2.9V46.9z"/>
	<path d="M173.7,14.2h-7.4h-8.6V60h8.9V26.7c0-1.9,0-4.6,0-4.6s3.3,0,4.4,0c2.4,0,4.4,1.7,4.4,5.1V60h8.9V26.6
		c0-5.1-0.8-6.9-2.5-8.9C179.8,15.3,177.4,14.2,173.7,14.2z"/>
	<path d="M94.4,14.2c-1.5,0-3.1,0-4.7,0V0h-8.6v60h2.8h5.8h4.7c4.3,0,7.9-1.1,10.5-4.7c2.8-3.9,3.1-10.7,3.1-18.2
		c0-7.5-0.3-14.3-3.1-18.2C102.3,15.3,98.7,14.2,94.4,14.2z M97.8,50.2c-0.8,1.2-2.1,1.8-3.5,1.8c-0.8,0-3,0-4.7,0V22.2
		c1.3,0,2.9,0,4.7,0c1.4,0,2.7,0.7,3.5,1.9c1.2,2,1.3,6.5,1.3,13.1S99,48.2,97.8,50.2z"/>
	<path d="M206.3,0v14.2c-1.6,0-3.3,0-4.7,0c-4.3,0-7.9,1-10.5,4.6c-2.8,3.9-3.1,10.7-3.1,18.2s0.3,14.3,3.1,18.2
		c2.6,3.6,6.2,4.7,10.5,4.7h4.7h5.8h2.8V0H206.3z M201.6,52c-1.4,0-2.7-0.6-3.5-1.8c-1.2-2-1.3-6.6-1.3-13.1c0-6.6,0.1-11,1.3-13.1
		c0.8-1.2,2.1-1.9,3.5-1.9c1.8,0,3.5,0,4.7,0V52C204.6,52,202.4,52,201.6,52z"/>
	<path d="M26,33.2c-1.3-2.3-2.9-3.8-4.7-4.5c1.1-0.6,2.1-1.3,2.9-2.3c2-2.4,2.9-5.7,2.9-9.7c0-2.5-0.3-4.6-0.8-6.4
		c-1-3.3-2.6-5.8-4.9-7.4C18.8,0.9,15.8,0,12.5,0H0v19.4h9V9.2h3.5c1.7,0,3,0.6,4.1,1.8c1.1,1.3,1.7,3.2,1.7,5.7
		c0,1.5-0.2,2.8-0.5,3.8c-0.9,2.7-2.6,4.1-5.2,4.1H9.8H9H0V60h15.5c2.1,0,4.2-0.7,6.3-2.1c1.9-1.2,3.3-2.9,4.4-5
		c1.3-2.7,2-5.9,2-9.7c0-1.5-0.1-2.9-0.3-4.2C27.5,36.7,26.8,34.7,26,33.2z M18.4,46.4c-1.1,3.1-3.1,4.6-5.9,4.6H9V33.6h3.5
		c2.1,0,3.6,0.7,4.7,2c1.2,1.5,1.8,3.8,1.8,7.1C19,44.1,18.8,45.3,18.4,46.4z"/>
	<path d="M50.2,22.2v-7.9c-5.1,0-7.1,0.6-9.1,2.4v-2.4h-8.6V60h8.9V29.8c0-4.8,3.2-7.7,7.4-7.7L50.2,22.2L50.2,22.2z"/>
</g>
</svg>
