<?xml version="1.0" encoding="utf-8"?>
<!-- Generator: Adobe Illustrator 24.0.0, SVG Export Plug-In . SVG Version: 6.00 Build 0)  -->
<svg version="1.1" id="Layer_1" xmlns="http://www.w3.org/2000/svg" xmlns:xlink="http://www.w3.org/1999/xlink" x="0px" y="0px"
	 viewBox="0 0 233.93 65.29" style="enable-background:new 0 0 233.93 65.29;" xml:space="preserve">
<g>
	<path d="M69.47,15.5c-4.68,0-8.62,1.1-11.46,5.04c-3.03,4.22-3.39,11.65-3.39,19.81c0,8.16,0.37,15.59,3.39,19.81
		c2.84,3.94,6.79,5.14,11.46,5.14c4.68,0,8.62-1.19,11.46-5.14c3.03-4.22,3.39-11.65,3.39-19.81c0-8.16-0.37-15.59-3.39-19.81
		C78.09,16.6,74.14,15.5,69.47,15.5z M73.23,54.66c-0.83,1.28-2.29,1.93-3.76,1.93c-1.47,0-2.93-0.64-3.76-1.93
		c-1.28-2.2-1.38-7.15-1.38-14.31c0-7.15,0.09-12.01,1.38-14.21c0.83-1.28,2.29-2.02,3.76-2.02c1.47,0,2.93,0.73,3.76,2.02
		c1.28,2.2,1.38,7.06,1.38,14.21C74.6,47.5,74.51,52.46,73.23,54.66z"/>
	<path d="M140.84,24.12V15.5c-5.56,0-7.77,0.69-9.85,2.63V15.5h-9.35v49.8h9.72V32.46c0-5.23,3.48-8.35,8.07-8.35H140.84z"/>
	<path d="M152.29,15.5c-3.94,0-5.92,0-5.92,0v8.62c0,0,4.54-0.09,6.01-0.09c3.03,0,4.68,2.02,4.68,5.59v7.43h-4.31
		c-5.59,0-8.71,1.19-11.1,3.3c-2.93,2.57-4.49,6.42-4.49,10.82c0,4.86,1.01,8.53,2.93,10.82c2.48,2.84,5.04,3.3,9.08,3.3
		c2.48,0,5.5,0,5.5,0h2.93h9.17V30.45c0-5.23-1.65-8.8-4.22-11.37C160.08,16.51,156.32,15.5,152.29,15.5z M157.06,51.08
		c0,1.99,0,6.42,0,6.42s-3.68,0-5.14,0c-3.3,0-5.04-2.38-5.04-6.69c0-1.93,0.73-4.31,1.93-5.41c1.38-1.28,2.93-1.47,5.04-1.47h3.21
		V51.08z"/>
	<path d="M189.08,15.5h-8.07h-9.35v49.8h9.72V29.07c0-2.09,0-4.96,0-4.96s3.59,0.02,4.77,0.02c2.66,0,4.77,1.83,4.77,5.59v35.58
		h9.72V28.98c0-5.59-0.83-7.52-2.75-9.72C195.69,16.69,193.03,15.5,189.08,15.5z"/>
	<path d="M102.7,15.5c-1.59,0-3.41,0-5.14,0V0h-9.35v65.29h3.03h6.33h5.14c4.68,0,8.62-1.19,11.46-5.14
		c3.03-4.22,3.39-11.65,3.39-19.81c0-8.16-0.37-15.59-3.39-19.81C111.32,16.6,107.38,15.5,102.7,15.5z M106.46,54.66
		c-0.83,1.28-2.29,1.93-3.76,1.93c-0.83,0-3.22,0-5.14,0V24.12c1.38,0,3.12,0,5.14,0c1.47,0,2.93,0.73,3.76,2.02
		c1.28,2.2,1.38,7.06,1.38,14.21C107.84,47.5,107.75,52.46,106.46,54.66z"/>
	<path d="M224.57,0v15.5c-1.72,0-3.55,0-5.14,0c-4.68,0-8.62,1.1-11.46,5.04c-3.03,4.22-3.39,11.65-3.39,19.81
		c0,8.16,0.37,15.59,3.39,19.81c2.84,3.94,6.79,5.14,11.46,5.14h5.14h6.33h3.03V0H224.57z M219.44,56.58
		c-1.47,0-2.93-0.64-3.76-1.93c-1.28-2.2-1.38-7.15-1.38-14.31c0-7.15,0.09-12.01,1.38-14.21c0.83-1.28,2.29-2.02,3.76-2.02
		c2.01,0,3.76,0,5.14,0v32.46C222.66,56.58,220.27,56.58,219.44,56.58z"/>
	<path d="M28.25,36.08c-1.41-2.46-3.12-4.1-5.13-4.94c1.21-0.6,2.27-1.44,3.18-2.54c2.14-2.65,3.21-6.16,3.21-10.52
		c0-2.67-0.29-4.99-0.86-6.94c-1.06-3.63-2.83-6.31-5.3-8.05C20.46,1.03,17.21,0,13.61,0H0v21.11h9.8V9.99h3.81
		c1.81,0,3.28,0.64,4.41,1.93c1.21,1.38,1.82,3.44,1.82,6.16c0,1.62-0.18,3-0.53,4.12c-0.97,2.98-2.87,4.47-5.7,4.47h-2.98H9.8H0
		v38.63h16.86c2.27,0,4.57-0.76,6.89-2.29c2.05-1.36,3.64-3.16,4.77-5.41c1.44-2.89,2.15-6.4,2.15-10.52c0-1.67-0.11-3.19-0.33-4.55
		C29.9,39.9,29.2,37.75,28.25,36.08z M20.04,50.45c-1.19,3.32-3.33,4.98-6.43,4.98H9.8V36.62h3.81c2.25,0,3.95,0.74,5.1,2.21
		c1.3,1.61,1.95,4.18,1.95,7.71C20.67,48.02,20.46,49.32,20.04,50.45z"/>
	<path d="M54.61,24.12V15.5c-5.56,0-7.77,0.69-9.85,2.63V15.5H35.4v49.8h9.72V32.46c0-5.23,3.48-8.35,8.07-8.35H54.61z"/>
</g>
</svg>
