<svg id="Layer_1" data-name="Layer 1" xmlns="http://www.w3.org/2000/svg" viewBox="0 0 1000 376"><defs><style>.cls-1{fill:#fff;}</style></defs><title>White</title><path class="cls-1" d="M28.16,229.3q0-35.31,0-70.62c0-8,.08-7.72,7.9-7.71,13.9,0,27.81-.09,41.7-.61a34.35,34.35,0,0,0,12.06-3c8.94-3.88,13.82-11.13,14.63-20.76.72-8.55.65-17.1-1.81-25.51C99.61,90.75,91.28,84,80.52,83.77c-4.16-.08-8.34.14-12.5.44-4.91.36-5.78,1.21-5.86,6.23-.14,9,0,18.09-.09,27.13-.11,12.71,1.24,10.76-11,10.76-6.26,0-12.52-.18-18.78-.16-2.81,0-4.2-.85-4.19-4,.09-24.23,0-48.47.06-72.7,0-5.68.47-6.19,6-6.28,15.17-.25,30.37-.89,45.51-.32,13.19.5,25.85,4,37,11.52C129.58,65,136.84,77.69,141.42,92c8.34,26.07,2.43,49.58-13.64,71-3.76,5-3.8,5.87.14,10.86C141.77,191.4,150,211,149.77,233.68c-.22,18.61-6.28,35.54-16.58,50.81-9.19,13.6-22.46,21-38.69,22.41-10,.89-20.12,1-30.19,1.16-10.55.12-21.1-.34-31.65-.22-3.26,0-4.39-1.11-4.39-4.1,0-3.94-.11-7.88-.11-11.83Q28.15,260.61,28.16,229.3Zm39.08.38v31.64c0,4.87.7,5.73,5.69,5.35a114.46,114.46,0,0,0,11.34-1.57c15.46-2.72,24.59-12.48,25.27-28.07a88.14,88.14,0,0,0-1.64-21.37c-1.93-9.41-7.64-16.34-16.68-20.44-5.82-2.64-12-2.48-18-3-5.33-.44-5.91.3-5.93,5.8-.07,10.57-.05,21.12-.05,31.66Z"/><path class="cls-1" d="M969,174.22v123.5c0,5.41-.87,6.36-6.1,6.5-11.59.31-23.17.8-34.76.88-12.63.09-25.2-.51-37.62-3.48-17.54-4.2-28.32-15.07-33.73-32-4.72-14.78-5.77-30.08-5.86-45.31-.13-21.77.66-43.57,1.85-65.32.69-12.66,4.7-24.46,13.51-34.23s20-13.52,32.43-14.59c7.72-.67,15.51-.64,23.27-.73,10.3-.12,12.14-1.8,12.16-12.22,0-15.07-.14-30.15-.14-45.22,0-6.85.27-7,7-7,7.3,0,14.61-.17,21.91-.29,5.81-.1,5.88-.09,5.89,5.65V174.2Zm-34.92,32.93h-.7q0-30.09,0-60.17a16.39,16.39,0,0,0-.34-4.82,3.65,3.65,0,0,0-2.46-2.25c-9.39-.2-18.84-.49-27.8,3-6.54,2.55-10.68,7.2-11.26,14.5-.31,3.93-.7,7.85-1,11.78-1.94,28.48-3,56.94,1,85.38,1.23,8.82,5.87,14.4,14.26,16.22a147.55,147.55,0,0,0,21.6,2.7c6.75.44,6.74.09,6.73-6.53q-.06-29.89,0-59.8Z"/><path class="cls-1" d="M383.28,177.07V63c0-4.52.23-9,.35-13.56.06-2.22,1.11-3.44,3.41-3.49,8.46-.18,16.92-.35,25.38-.58,2.07-.06,3,.93,3.09,2.86.09,1.62.14,3.24.16,4.87q.35,23.65.68,47.3c.09,5.8,1.31,7,7.08,7.67,11.14,1.33,22.38,2.14,33.36,4.29,15.79,3.08,29.51,10,34.91,26.61A119.58,119.58,0,0,1,497.46,166a316.06,316.06,0,0,1,.81,41.68c-1.07,20.68-2.64,41.4-8.21,61.52A74.22,74.22,0,0,1,487,278c-6.66,15.89-18.7,25-35.62,27.47a177.5,177.5,0,0,1-21.44,1.93c-13.91.34-27.83.09-41.74.3-3.63.06-4.94-1.21-4.86-4.77.18-8.23.18-16.46.18-24.69V177Zm33.8,33h-.63v63.6c0,4.8.52,5.43,5.39,5.4a111.91,111.91,0,0,0,12.48-.65c11.94-1.43,20.36-9.1,22.38-20.83a226.28,226.28,0,0,0,2.76-23.39,413.59,413.59,0,0,0-1.28-69.39c-1.23-12.08-12.08-23-24.14-24.07-3-.26-6-.42-9-.52-7.42-.25-7.89.1-7.91,7.65C417,168.59,417.08,189.33,417.08,210.07Z"/><path class="cls-1" d="M361.54,208.33c-.76,17.37-1.47,34.74-2.28,52.11-.69,14.72-5.88,27.29-18,36.37-8.12,6.09-17.52,8.82-27.44,9.84-11.41,1.17-22.78.87-33.44-3.87-14.94-6.65-24.1-18.27-26.64-34.43a285.85,285.85,0,0,1-2.8-30.4c-1.19-24.44-1.4-48.91.6-73.32A230.28,230.28,0,0,1,255,139.2c3.08-15.73,12.65-25.51,28.57-28.23,16.54-2.83,33.16-3.49,49.55,1.18,12.57,3.58,21.47,11.61,25.37,24a84.43,84.43,0,0,1,4,23.14c.36,16.32-.42,32.67-.73,49Zm-77.2-.73c.36,13.15,1.06,27.74,1.07,42.34,0,10.57,5.8,16.65,14.41,20.91a13.21,13.21,0,0,0,6.62,1.38c7.88-.67,17.22-10,18.07-17.85.43-4,.65-8.08.7-12.13.21-14.94.3-29.89.46-44.84.12-12,.37-24.1.32-36.15a21.25,21.25,0,0,0-1.58-8.75c-3.68-7.81-14.56-13.3-22.29-11.65-7.28,1.56-16.29,8.27-16.49,19.76-.27,15.19-.82,30.38-1.29,47Z"/><path class="cls-1" d="M722,206.46V113.25c0-2.83,1.14-4,4.17-4,25,.14,50.08-.11,75.11.28,13.94.22,26.8,12.52,29,27a106.26,106.26,0,0,1,1.06,15.59q.29,71.13.38,142.26c0,9.15,0,9.08-9.29,9-6.49,0-13,.17-19.47.3-5.83.12-6,.08-6-5.91V268.2c0-28.75.1-57.51,0-86.26a141.15,141.15,0,0,0-1.42-21.46c-1.91-11.94-10.14-19-22.17-19.59a106.44,106.44,0,0,0-13.18.61c-3.45.26-5.14,2.25-5.1,5.76v12.52q.07,67,.14,133.91c0,11.73-.28,9.68-9.83,9.67-6.26,0-12.52-.23-18.78-.09-3.25.08-4.49-1-4.47-4.34.1-15.88,0-31.77,0-47.65V206.41Z"/><path class="cls-1" d="M698.17,236.38v65c0,4.94-.48,5.39-5.28,5.46q-22.78.35-45.55.75c-12.91.24-25.81-.3-38.3-3.58-9.84-2.58-18.2-7.79-23.36-17.23a54.42,54.42,0,0,1-6.73-26c-.08-9-.16-18.16,1.43-27,3-16.2,13.68-26.65,28.28-33.24,11.85-5.35,24.52-7.42,37.38-8.48,3.93-.32,7.86-.57,11.78-.94,2.16-.2,3.85-1.08,3.69-3.66-.59-9.47-.58-19-2-28.38-1.51-10.12-8.61-16-19.13-17-6.68-.67-13.41-.93-20.12-1.15-2.68-.08-3.61-1-3.6-3.69,0-6.84-.37-13.67-.35-20.51,0-4.78.42-5.29,5.06-5.59,14.93-1,29.86-1.72,44.48,2.8,14.26,4.41,22.56,14.41,26.68,28.25,4.47,15,5.43,30.54,5.56,46.1.13,16,0,32,0,48Zm-39,11.17h-.6v-28.1c0-2.24-.71-4-3.6-3q-12.94,4.39-25.9,8.71c-4.55,1.52-7.18,4.82-8.77,9.17-3.14,8.57-2.71,17.19-.76,26,1.53,6.89,5.6,11.23,12.27,12.61,7.56,1.57,15.26,2.41,22.9,3.55,3.29.49,4.58-.92,4.53-4.25-.13-8.24,0-16.47,0-24.69Z"/><path class="cls-1" d="M169.9,208.44v-88c0-9.06,0-9.06,9.23-9.06,7.76,0,15.53.08,23.29,0a5.14,5.14,0,0,1,5.24,3c2.8,5.13,5.82,5.32,9,.44,1.83-2.85,4-3.69,7.23-3.55,5.67.25,11.36.28,17,.2,3.19,0,4.61,1.05,4.56,4.42-.1,6.83.16,13.67.16,20.51,0,4.5-1.13,5.8-5.65,6.2-4.72.42-9.48.38-14.19.87-5.64.58-9.5,3.69-11.87,8.91a73.15,73.15,0,0,0-6.16,30q-.5,57-.66,114c0,8.55.07,8.58-8.47,8.62-8.11,0-16.22.09-24.33,0-4.44,0-4.65-.29-4.63-4.86,0-7.18.24-14.37.25-21.55Q169.94,243.55,169.9,208.44Z"/><path class="cls-1" d="M518.94,208.38V126.65c0-3.94.24-7.88.34-11.82,0-2.22.92-3.38,3.36-3.37,9.74.07,19.48-.11,29.21.14a7.1,7.1,0,0,1,4.68,2.73c3.9,5.16,5.76,5.39,9.3.22a6.77,6.77,0,0,1,6.4-3.22c6,.15,12.06.17,18.08,0,3-.09,4.22,1,4.23,4,0,7.42.09,14.84.33,22.25.12,3.65-1.71,5-5,5.15-5,.25-9.94.42-14.89.81-6.06.48-9.78,3.92-12.1,9.46A77.2,77.2,0,0,0,557,182.4q-.5,57.37-.65,114.75c0,7.8.14,7.8-7.77,7.89l-23,.29c-6.32.09-6.58-.07-6.61-6.52,0-9,.12-18.08.13-27.13v-63.3Z"/></svg>