<?xml version="1.0" encoding="utf-8"?>
<!-- Generator: Adobe Illustrator 24.0.0, SVG Export Plug-In . SVG Version: 6.00 Build 0)  -->
<svg version="1.1" id="Layer_1" xmlns="http://www.w3.org/2000/svg" xmlns:xlink="http://www.w3.org/1999/xlink" x="0px" y="0px"
	 viewBox="0 0 65.22 65.22" style="enable-background:new 0 0 65.22 65.22;" xml:space="preserve">
<style type="text/css">
	.st0{fill:#FFFFFF;}
</style>
<g>
	<rect width="65.22" height="65.22"/>
	<g>
		<path class="st0" d="M48.84,22.42c-2.78,0-5.12,0.65-6.81,3c-1.8,2.51-2.02,6.92-2.02,11.77c0,4.85,0.22,9.27,2.02,11.77
			c1.69,2.34,4.03,3.05,6.81,3.05c2.78,0,5.12-0.71,6.81-3.05c1.8-2.51,2.02-6.92,2.02-11.77c0-4.85-0.22-9.27-2.02-11.77
			C53.96,23.07,51.62,22.42,48.84,22.42z M51.07,45.69c-0.49,0.76-1.36,1.14-2.23,1.14c-0.87,0-1.74-0.38-2.23-1.14
			c-0.76-1.31-0.82-4.25-0.82-8.5c0-4.25,0.05-7.14,0.82-8.45c0.49-0.76,1.36-1.2,2.23-1.2c0.87,0,1.74,0.44,2.23,1.2
			c0.76,1.31,0.82,4.2,0.82,8.45C51.89,41.44,51.84,44.38,51.07,45.69z"/>
		<path class="st0" d="M24.34,34.65c-0.84-1.46-1.86-2.44-3.05-2.94c0.72-0.35,1.35-0.86,1.89-1.51c1.27-1.57,1.91-3.66,1.91-6.26
			c0-1.59-0.17-2.96-0.51-4.13c-0.63-2.16-1.68-3.75-3.15-4.79c-1.72-1.22-3.65-1.83-5.79-1.83H7.55v12.55h5.83v-6.61h2.26
			c1.08,0,1.95,0.38,2.62,1.15c0.72,0.82,1.08,2.04,1.08,3.66c0,0.96-0.11,1.78-0.32,2.45c-0.58,1.77-1.71,2.66-3.39,2.66h-1.77
			h-0.49H7.55v22.96h10.02c1.35,0,2.72-0.45,4.09-1.36c1.22-0.81,2.17-1.88,2.83-3.21c0.85-1.72,1.28-3.8,1.28-6.26
			c0-0.99-0.07-1.89-0.2-2.7C25.32,36.92,24.91,35.65,24.34,34.65z M19.46,43.19c-0.71,1.97-1.98,2.96-3.82,2.96h-2.26V34.97h2.26
			c1.34,0,2.35,0.44,3.03,1.32c0.77,0.96,1.16,2.49,1.16,4.58C19.84,41.75,19.71,42.52,19.46,43.19z"/>
		<path class="st0" d="M40.01,27.54v-5.12c-3.31,0-4.62,0.41-5.86,1.56v-1.56h-5.56v29.6h5.78V32.5c0-3.11,2.07-4.96,4.8-4.96H40.01
			z"/>
	</g>
</g>
</svg>
