<?xml version="1.0" encoding="utf-8"?>
<!-- Generator: Adobe Illustrator 25.0.0, SVG Export Plug-In . SVG Version: 6.00 Build 0)  -->
<svg version="1.1" id="Layer_1" xmlns="http://www.w3.org/2000/svg" xmlns:xlink="http://www.w3.org/1999/xlink" x="0px" y="0px"
	 viewBox="0 0 60 60" style="enable-background:new 0 0 60 60;" xml:space="preserve">
<style type="text/css">
	.st0{fill:#FFFFFF;}
</style>
<g>
	<rect width="60" height="60"/>
	<g>
		<path class="st0" d="M44.9,20.6c-2.6,0-4.7,0.6-6.3,2.8c-1.7,2.3-1.9,6.4-1.9,10.8S37,42.7,38.7,45c1.6,2.2,3.7,2.8,6.3,2.8
			c2.6,0,4.7-0.7,6.3-2.8c1.7-2.3,1.9-6.4,1.9-10.8s-0.2-8.5-1.9-10.8C49.6,21.2,47.5,20.6,44.9,20.6z M47,42c-0.5,0.7-1.3,1-2.1,1
			c-0.8,0-1.6-0.3-2.1-1c-0.7-1.2-0.8-3.9-0.8-7.8s0-6.6,0.8-7.8c0.5-0.7,1.3-1.1,2.1-1.1c0.8,0,1.6,0.4,2.1,1.1
			c0.7,1.2,0.8,3.9,0.8,7.8S47.7,40.8,47,42z"/>
		<path class="st0" d="M22.4,31.9c-0.8-1.3-1.7-2.2-2.8-2.7c0.7-0.3,1.2-0.8,1.7-1.4c1.2-1.4,1.8-3.4,1.8-5.8c0-1.5-0.2-2.7-0.5-3.8
			c-0.6-2-1.5-3.4-2.9-4.4c-1.6-1.1-3.4-1.7-5.3-1.7H6.9v11.5h5.4v-6.1h2.1c1,0,1.8,0.3,2.4,1.1c0.7,0.8,1,1.9,1,3.4
			c0,0.9-0.1,1.6-0.3,2.3c-0.5,1.6-1.6,2.4-3.1,2.4h-1.6h-0.5H6.9v21.1h9.2c1.2,0,2.5-0.4,3.8-1.3c1.1-0.7,2-1.7,2.6-3
			c0.8-1.6,1.2-3.5,1.2-5.8c0-0.9-0.1-1.7-0.2-2.5C23.3,34,22.9,32.8,22.4,31.9z M17.9,39.7c-0.7,1.8-1.8,2.7-3.5,2.7h-2.1V32.2h2.1
			c1.2,0,2.2,0.4,2.8,1.2c0.7,0.9,1.1,2.3,1.1,4.2C18.3,38.4,18.1,39.1,17.9,39.7z"/>
		<path class="st0" d="M36.8,25.3v-4.7c-3,0-4.3,0.4-5.4,1.4v-1.4h-5.1v27.2h5.3v-18c0-2.9,1.9-4.6,4.4-4.6H36.8z"/>
	</g>
</g>
</svg>
